<svg width="68" height="68" viewBox="0 0 68 68" fill="none" xmlns="http://www.w3.org/2000/svg">
<g filter="url(#filter0_d_20_64)">
<path d="M34 0C17.4277 0 4 13.4277 4 30C4 46.5723 17.4277 60 34 60C50.5723 60 64 46.5723 64 30C64 13.4277 50.5723 0 34 0ZM22.6161 43.1103C22.432 43.4243 22.1685 43.6842 21.852 43.8641C21.5356 44.0439 21.1774 44.1373 20.8134 44.1348C20.4424 44.138 20.0779 44.0379 19.7607 43.8455C19.5245 43.7087 19.3177 43.5265 19.1521 43.3095C18.9865 43.0925 18.8654 42.8449 18.7957 42.581C18.726 42.3171 18.7091 42.042 18.746 41.7715C18.7829 41.501 18.8729 41.2405 19.0107 41.0049L21.0585 37.6004C21.162 37.4247 21.3096 37.2791 21.4867 37.1781C21.6639 37.0771 21.8644 37.0241 22.0683 37.0246H22.371C23.8562 37.0246 24.8955 37.9179 25.1982 38.783L22.6161 43.1103ZM39.9531 36.4138L26.5429 36.4286H17.6299C17.3495 36.4298 17.0717 36.374 16.8135 36.2646C16.5553 36.1552 16.322 35.9945 16.1278 35.7923C15.9335 35.59 15.7824 35.3504 15.6835 35.088C15.5847 34.8255 15.5402 34.5458 15.5527 34.2656C15.5955 33.1406 16.5772 32.2888 17.6955 32.2888H24.1562L31.8156 19.2509L29.3353 15.0254C28.7768 14.0625 29.0246 12.7929 29.9821 12.1875C30.2182 12.0348 30.4827 11.9315 30.7598 11.8836C31.0368 11.8358 31.3207 11.8445 31.5943 11.9092C31.8679 11.9738 32.1256 12.0932 32.3519 12.26C32.5782 12.4268 32.7684 12.6377 32.9112 12.8799L34.2371 15.1446H34.2518L35.579 12.8799C35.7219 12.6389 35.9118 12.4292 36.1375 12.2632C36.3632 12.0972 36.62 11.9784 36.8926 11.9138C37.1651 11.8492 37.448 11.8401 37.7241 11.8871C38.0003 11.9341 38.2642 12.0363 38.5 12.1875C39.4522 12.7929 39.6973 14.0625 39.1348 15.0295L36.6545 19.2549L34.2437 23.3652L29.0085 32.2929V32.3076H36.7241C37.6911 32.3076 38.9031 32.8272 39.3933 33.6629L39.4362 33.75C39.8687 34.4853 40.1138 34.9902 40.1138 35.7254C40.1068 35.9642 40.0536 36.1993 39.9571 36.4179L39.9531 36.4138ZM50.3661 36.4286H46.7353V36.4433L49.3897 40.958C49.6752 41.4335 49.7626 42.0021 49.6331 42.5414C49.5036 43.0806 49.1676 43.5475 48.6973 43.8415C48.3713 44.0403 47.997 44.1454 47.6152 44.1455C47.2522 44.1454 46.8954 44.0513 46.5795 43.8725C46.2637 43.6937 45.9994 43.4362 45.8125 43.125L41.8897 36.4473L39.4522 32.2955L36.3076 26.9196C35.8521 26.152 35.6045 25.279 35.5893 24.3865C35.574 23.4941 35.7916 22.6131 36.2205 21.8304C36.842 20.7335 37.3174 20.4455 37.3174 20.4455L44.3125 32.2768H50.3272C51.4522 32.2768 52.4179 33.142 52.4701 34.2522C52.4809 34.5345 52.4346 34.8161 52.3339 35.08C52.2331 35.3439 52.0801 35.5847 51.8839 35.788C51.6878 35.9913 51.4526 36.1528 51.1924 36.2629C50.9323 36.373 50.6526 36.4293 50.3701 36.4286H50.3661Z" fill="url(#paint0_linear_20_64)"/>
</g>
<defs>
<filter id="filter0_d_20_64" x="0" y="0" width="68" height="68" filterUnits="userSpaceOnUse" color-interpolation-filters="sRGB">
<feFlood flood-opacity="0" result="BackgroundImageFix"/>
<feColorMatrix in="SourceAlpha" type="matrix" values="0 0 0 0 0 0 0 0 0 0 0 0 0 0 0 0 0 0 127 0" result="hardAlpha"/>
<feOffset dy="4"/>
<feGaussianBlur stdDeviation="2"/>
<feComposite in2="hardAlpha" operator="out"/>
<feColorMatrix type="matrix" values="0 0 0 0 0 0 0 0 0 0 0 0 0 0 0 0 0 0 0.25 0"/>
<feBlend mode="normal" in2="BackgroundImageFix" result="effect1_dropShadow_20_64"/>
<feBlend mode="normal" in="SourceGraphic" in2="effect1_dropShadow_20_64" result="shape"/>
</filter>
<linearGradient id="paint0_linear_20_64" x1="34" y1="0" x2="34" y2="60" gradientUnits="userSpaceOnUse">
<stop stop-color="#15C9FB"/>
<stop offset="1" stop-color="#1977F3"/>
</linearGradient>
</defs>
</svg>
